<svg xmlns="http://www.w3.org/2000/svg" width="1400" height="520" viewBox="0 0 1400 520" role="img" aria-label="抽象技术博客封面">
  <defs>
    <linearGradient id="bg" x1="0" y1="0" x2="1" y2="1">
      <stop offset="0" stop-color="#1c375f"/>
      <stop offset=".42" stop-color="#18233f"/>
      <stop offset="1" stop-color="#10291f"/>
    </linearGradient>
    <linearGradient id="line" x1="0" y1="0" x2="1" y2="0">
      <stop offset="0" stop-color="#5bd6df"/>
      <stop offset=".55" stop-color="#72a8ff"/>
      <stop offset="1" stop-color="#f0b457"/>
    </linearGradient>
  </defs>
  <rect width="1400" height="520" fill="url(#bg)"/>
  <g opacity=".16" stroke="#fff" stroke-width="1">
    <path d="M0 88h1400M0 176h1400M0 264h1400M0 352h1400M0 440h1400"/>
    <path d="M100 0v520M220 0v520M340 0v520M460 0v520M580 0v520M700 0v520M820 0v520M940 0v520M1060 0v520M1180 0v520M1300 0v520"/>
  </g>
  <g transform="translate(760 82)">
    <path d="M36 226 164 52 292 226 420 90 548 226" fill="none" stroke="url(#line)" stroke-width="10" stroke-linecap="round" stroke-linejoin="round"/>
    <g fill="#fff" opacity=".92">
      <circle cx="36" cy="226" r="12"/>
      <circle cx="164" cy="52" r="12"/>
      <circle cx="292" cy="226" r="12"/>
      <circle cx="420" cy="90" r="12"/>
      <circle cx="548" cy="226" r="12"/>
    </g>
    <g fill="none" stroke="#8fc3ff" stroke-width="2" opacity=".5">
      <rect x="80" y="270" width="180" height="84" rx="8"/>
      <path d="M112 304h116M112 326h72"/>
      <rect x="320" y="284" width="192" height="70" rx="8"/>
      <path d="M352 314h124M352 336h84"/>
    </g>
  </g>
  <g fill="#f0b457" opacity=".8">
    <circle cx="1220" cy="86" r="5"/>
    <circle cx="1274" cy="144" r="4"/>
    <circle cx="1146" cy="176" r="3"/>
    <circle cx="1048" cy="70" r="4"/>
  </g>
</svg>
